# xmcd
#
# Track frame offsets:
#	150
#	16741
#	33200
#	48457
#	64870
#	82231
#	97901
#	109671
#	123986
#	139441
#	151242
#	166405
#	184373
#	202554
#	219591
#	233101
#	247867
#	263228
#	276727
#	294231
#	307812
#	325521
#	336902
#
# Disc length: 4695 seconds
#
# Revision: 1
# Processed by: cddbd v1.5.2PL0 Copyright (c) Steve Scherf et al.
# Submitted via: audiograbber 1.83.01
#
DISCID=41125517
DTITLE=Super Schlager Hits - Super Schlager Hits
DYEAR=2011
DGENRE=Deutscher Schlager
TTITLE0=Andrea Berg - Du hast mich tausendmal belogen
TTITLE1=Wolfgang Petry - Wahnsinn
TTITLE2=DJ Ötzi and Nik. P - Ein Stern (der deinen Namen trägt)
TTITLE3=Udo Jürgens - Aber bitte mit Sahne
TTITLE4=Nino de Angelo - Jenseits von Eden
TTITLE5=Andy Borg - Adios Amor
TTITLE6=Nana Mouskouri - Weiße Rosen aus Athen
TTITLE7=Adamo - Ein kleines Glück
TTITLE8=Die jungen Zillertaler - So a schöner Tag (Fliegerlied)
TTITLE9=Karel Gott - Biene Maja
TTITLE10=Henry Valentino mit Uschi - Im Wagen vor mir
TTITLE11=Roland Kaiser - Santa Maria
TTITLE12=Simone - Sehnsucht kommt nicht von ungefähr
TTITLE13=Hansi Hinterseer - Amore Mio
TTITLE14=Marianne Rosenberg - Er gehört zu mir
TTITLE15=Wencke Myhre - Er hat ein knallrotes Gummiboot
TTITLE16=Jürgen Drews - Ein Bett im Kornfeld
TTITLE17=Costa Cordalis - Anita
TTITLE18=Michael Holm - Tränen lügen nicht
TTITLE19=Roy Black - Ganz in weiß
TTITLE20=Demis Roussos - Goodbye My Love Goodbye
TTITLE21=Heintje - Mama
TTITLE22=Jazz Gitti and her Disco Killers - Kränk di net
EXTD=
EXTT0=
EXTT1=
EXTT2=
EXTT3=
EXTT4=
EXTT5=
EXTT6=
EXTT7=
EXTT8=
EXTT9=
EXTT10=
EXTT11=
EXTT12=
EXTT13=
EXTT14=
EXTT15=
EXTT16=
EXTT17=
EXTT18=
EXTT19=
EXTT20=
EXTT21=
EXTT22=
PLAYORDER=
